# xmcd
#
# Track frame offsets: 
#        150
#        14548
#        36911
#        58684
#        78030
#        94496
#        114216
#        136528
#        153714
#        172287
#        192191
#        218086
#        235677
#
# Disc length: 3536 seconds
#
# Revision: 1
# Processed by: cddbd v1.5.2PL0 Copyright (c) Steve Scherf et al.
# Submitted via: ExactAudioCopyFreeDBPlugin 1.0
#
DISCID=a80dce0d
DTITLE=Kevin Montgomery - 2:30am
DYEAR=2003
DGENRE=Country
TTITLE0=Tennessee Girl
TTITLE1=Cherokee City
TTITLE2=Red-Blooded American Boy
TTITLE3=I Can't Drive You From My Mind
TTITLE4=Melrose
TTITLE5=She Don't Wake Me Up
TTITLE6=Wreckless
TTITLE7=Way Back When
TTITLE8=Thank You Very Much
TTITLE9=Bella Bina
TTITLE10=No Surrender
TTITLE11=I Want You
TTITLE12=Fear Nothing
EXTD=
EXTT0=
EXTT1=
EXTT2=
EXTT3=
EXTT4=
EXTT5=
EXTT6=
EXTT7=
EXTT8=
EXTT9=
EXTT10=
EXTT11=
EXTT12=
PLAYORDER=
